
@startuml
'https://plantuml.com/class-diagram

class Puzzle
class User
class EloRating
class Problem
class Submission
class Leaderboard
class Category
class Notifications
class Feedback
class Statistics

Puzzle <--> Problem
User <--> EloRating
User <--> Statistics
Puzzle --> Category
Puzzle --> Feedback
Leaderboard --> User
Submission --> Puzzle
Notifications --> User
User --> Puzzle

@enduml